<svg width="198" height="99" viewBox="0 0 198 99" fill="none" xmlns="http://www.w3.org/2000/svg">
<path d="M12.298 40.119C16.5693 40.119 18.705 38.3847 18.705 34.916C18.705 33.2247 17.6587 31.7913 15.566 30.616C14.62 30.0713 13.5737 29.5553 12.427 29.068C11.309 28.5807 10.1767 28.0503 9.03 27.477C7.88333 26.9037 6.837 26.2873 5.891 25.628C4.97367 24.9687 4.214 24.1373 3.612 23.134C3.03867 22.1307 2.752 20.9983 2.752 19.737C2.752 17.673 3.58333 15.9243 5.246 14.491C6.93733 13.029 9.245 12.298 12.169 12.298C15.093 12.298 18.1747 13.1867 21.414 14.964C21.414 16.598 21.2133 18.6477 20.812 21.113C20.1813 21.199 19.35 21.242 18.318 21.242L17.028 16.254C16.684 16.082 15.996 15.91 14.964 15.738C13.9607 15.566 13.072 15.48 12.298 15.48C10.6353 15.48 9.34533 15.8383 8.428 16.555C7.51067 17.243 7.052 18.2177 7.052 19.479C7.052 20.7117 7.58233 21.8297 8.643 22.833C9.73233 23.8077 11.0367 24.6533 12.556 25.37C14.104 26.058 15.6377 26.7747 17.157 27.52C18.705 28.2653 20.0093 29.24 21.07 30.444C22.1593 31.6193 22.704 32.9953 22.704 34.572C22.704 37.4387 21.7437 39.6603 19.823 41.237C17.9023 42.785 15.394 43.559 12.298 43.559C10.6067 43.559 8.772 43.301 6.794 42.785C4.84467 42.2403 3.225 41.5523 1.935 40.721C1.99233 38.8003 2.20733 36.5787 2.58 34.056C3.21067 33.97 4.042 33.927 5.074 33.927L5.977 39.087C6.60767 39.345 7.55367 39.5887 8.815 39.818C10.105 40.0187 11.266 40.119 12.298 40.119ZM43.4834 28.939L43.2684 40.033C44.5011 40.119 45.7337 40.3197 46.9664 40.635L46.8804 42.14C46.4217 42.3693 45.5904 42.6273 44.3864 42.914C43.2111 43.172 42.0501 43.301 40.9034 43.301C40.3874 42.269 40.1007 41.28 40.0434 40.334C36.7754 42.484 34.4821 43.559 33.1634 43.559C31.1281 43.559 29.4941 43.0143 28.2614 41.925C27.0287 40.8357 26.4124 39.3163 26.4124 37.367C26.4124 32.8663 29.1644 30.5443 34.6684 30.401C37.8791 30.315 39.4987 30.272 39.5274 30.272L39.4844 28.81C39.4271 26.832 39.0544 25.413 38.3664 24.553C37.6784 23.6643 36.4457 23.22 34.6684 23.22C33.9231 23.22 33.1204 23.392 32.2604 23.736L31.2284 28.036C31.0851 28.0647 30.8414 28.079 30.4974 28.079L28.7344 27.95C28.2757 26.7173 28.0321 25.0117 28.0034 22.833C28.5481 22.5463 29.7951 22.1163 31.7444 21.543C33.6937 20.941 34.9407 20.64 35.4854 20.64C38.4094 20.64 40.4734 21.285 41.6774 22.575C42.8814 23.865 43.4834 25.9863 43.4834 28.939ZM34.1094 40.635C34.9407 40.635 36.8614 39.7033 39.8714 37.84L39.6564 32.465C37.7071 32.637 36.0731 32.7947 34.7544 32.938C33.4357 33.0813 32.3751 33.4683 31.5724 34.099C30.7697 34.701 30.3684 35.6613 30.3684 36.98C30.3684 39.4167 31.6154 40.635 34.1094 40.635ZM70.2321 25.456C70.3468 26.3733 70.4041 27.434 70.4041 28.638C70.4041 29.842 70.2894 33.6547 70.0601 40.076L73.6721 40.42C73.6721 41.2227 73.4284 42.0827 72.9411 43H63.0511L62.9221 41.495C64.2408 41.0363 65.5308 40.6923 66.7921 40.463C66.6201 32.8377 66.4624 28.595 66.3191 27.735C66.2044 26.875 66.0038 26.1583 65.7171 25.585C65.4304 24.983 64.9861 24.5673 64.3841 24.338C63.7821 24.1087 62.8648 23.994 61.6321 23.994C60.4281 23.994 58.8371 24.4527 56.8591 25.37C56.6871 31.906 56.5724 36.808 56.5151 40.076L60.1271 40.42C60.1271 41.2227 59.8834 42.0827 59.3961 43H49.5061L49.3771 41.495C50.6958 41.0363 51.9858 40.6923 53.2471 40.463C53.2184 38.399 53.1468 35.4893 53.0321 31.734C52.9174 27.95 52.8458 25.4703 52.8171 24.295C51.2404 24.209 49.9791 24.037 49.0331 23.779L49.2051 21.543C50.7531 21.113 53.0034 20.898 55.9561 20.898C56.3574 21.6147 56.6154 22.36 56.7301 23.134C57.9914 22.4747 59.2384 21.9013 60.4711 21.414C61.7038 20.898 62.4778 20.64 62.7931 20.64C65.9751 20.64 68.1968 21.6147 69.4581 23.564C70.7768 22.8473 72.1384 22.188 73.5431 21.586C74.9764 20.9553 75.8364 20.64 76.1231 20.64C78.7318 20.64 80.6811 21.285 81.9711 22.575C83.2898 23.8363 83.9491 25.9147 83.9491 28.81C83.9491 29.67 83.8344 33.4253 83.6051 40.076L87.2171 40.42C87.2171 41.2227 86.9734 42.0827 86.4861 43H76.5961L76.4671 41.495C77.7858 41.0363 79.0758 40.6923 80.3371 40.463C80.2224 35.9337 80.1221 32.508 80.0361 30.186C79.9501 27.864 79.6204 26.2587 79.0471 25.37C78.4738 24.4527 77.3271 23.994 75.6071 23.994C73.8871 23.994 72.0954 24.4813 70.2321 25.456ZM100.28 40.162C101.111 40.162 102.043 39.99 103.075 39.646C104.107 39.2733 104.952 38.829 105.612 38.313C105.497 32.207 105.397 27.5773 105.311 24.424C103.533 24.424 102.215 24.252 101.355 23.908L101.527 21.672C103.963 21.242 105.87 21.027 107.246 21.027C108.65 21.027 109.539 21.0557 109.912 21.113C109.912 21.629 109.826 22.317 109.654 23.177C109.51 24.037 109.41 24.51 109.353 24.596L108.837 39.947C110.356 40.033 111.589 40.205 112.535 40.463L112.449 42.656C111.187 43.0573 109.969 43.258 108.794 43.258C107.618 43.258 106.902 43.2437 106.644 43.215C106.099 42.1257 105.784 41.1223 105.698 40.205C104.293 41.2657 102.989 42.0827 101.785 42.656C100.609 43.2293 99.8354 43.516 99.4627 43.516C96.94 43.516 95.1054 42.8423 93.9587 41.495C92.8407 40.119 92.2817 38.1123 92.2817 35.475C92.2817 35.4463 92.4107 31.777 92.6687 24.467C91.006 24.467 89.4724 24.2807 88.0677 23.908L88.2397 21.672C90.6764 21.242 92.5684 21.027 93.9157 21.027C95.263 21.027 96.123 21.0557 96.4957 21.113C96.4957 21.801 96.4097 22.5607 96.2377 23.392C96.0657 24.2233 95.9654 24.6247 95.9367 24.596L95.9797 33.884C95.9797 36.0627 96.252 37.6537 96.7967 38.657C97.3414 39.6603 98.5024 40.162 100.28 40.162ZM125.681 40.592C126.942 40.592 128.92 39.99 131.615 38.786C132.16 39.5313 132.446 40.1907 132.475 40.764C131.013 41.624 129.58 42.2977 128.175 42.785C126.77 43.2723 125.767 43.516 125.165 43.516C121.84 43.516 119.303 42.527 117.554 40.549C115.805 38.5423 114.931 35.7473 114.931 32.164C114.931 28.5807 115.777 25.7713 117.468 23.736C119.188 21.672 121.754 20.64 125.165 20.64C127.802 20.64 129.809 21.586 131.185 23.478C132.59 25.37 133.292 27.907 133.292 31.089C133.063 31.4903 132.876 31.7627 132.733 31.906L118.887 31.691C118.916 34.5863 119.417 36.7937 120.392 38.313C121.395 39.8323 123.158 40.592 125.681 40.592ZM129.379 29.24C129.379 27.348 129.035 25.886 128.347 24.854C127.659 23.7933 126.512 23.263 124.907 23.263C123.302 23.263 121.868 23.564 120.607 24.166C119.747 25.886 119.202 27.649 118.973 29.455C121.238 29.4263 124.706 29.3547 129.379 29.24ZM142.568 11.051C143.457 11.051 144.087 11.0797 144.46 11.137C144.46 12.1403 144.274 13.287 143.901 14.577C143.643 31.4903 143.514 39.99 143.514 40.076L147.126 40.42C147.126 41.2227 146.882 42.0827 146.395 43H136.505L136.376 41.495C137.695 41.0363 138.985 40.6923 140.246 40.463L139.816 14.448C138.239 14.362 136.978 14.19 136.032 13.932L136.204 11.696C137.666 11.266 139.787 11.051 142.568 11.051ZM154.948 11.395C155.12 12.1977 155.206 13.2297 155.206 14.491C155.206 15.7523 154.705 17.114 153.701 18.576C152.727 20.038 151.824 21.027 150.992 21.543C150.505 21.3423 150.046 21.0127 149.616 20.554C149.932 19.608 150.82 18.2893 152.282 16.598C152.655 16.168 152.87 15.9243 152.927 15.867C151.924 15.867 151.236 15.8383 150.863 15.781C150.691 15.2363 150.605 14.491 150.605 13.545C150.605 12.599 150.634 11.9253 150.691 11.524C151.322 11.3807 151.981 11.309 152.669 11.309C153.386 11.309 154.146 11.3377 154.948 11.395ZM162.672 40.248C163.675 40.678 164.893 40.893 166.327 40.893C167.789 40.893 168.935 40.6207 169.767 40.076C170.598 39.5313 171.014 38.786 171.014 37.84C171.014 36.894 170.627 36.1057 169.853 35.475C169.079 34.8443 168.133 34.2853 167.015 33.798C165.897 33.3107 164.779 32.7947 163.661 32.25C162.543 31.7053 161.597 30.9887 160.823 30.1C160.049 29.2113 159.662 28.1793 159.662 27.004C159.662 25.026 160.321 23.478 161.64 22.36C162.958 21.2133 164.779 20.64 167.101 20.64C169.451 20.64 171.659 21.1703 173.723 22.231C173.751 22.5177 173.766 23.2917 173.766 24.553C173.766 25.7857 173.637 26.8463 173.379 27.735C172.691 27.9643 171.874 28.079 170.928 28.079L169.509 23.693C168.878 23.3777 168.018 23.22 166.929 23.22C165.868 23.22 165.022 23.5067 164.392 24.08C163.761 24.6247 163.446 25.327 163.446 26.187C163.446 27.0183 163.833 27.7493 164.607 28.38C165.409 29.0107 166.37 29.584 167.488 30.1C168.606 30.5873 169.724 31.1177 170.842 31.691C171.96 32.2357 172.906 32.9667 173.68 33.884C174.482 34.7727 174.884 35.8047 174.884 36.98C174.884 39.044 174.081 40.6637 172.476 41.839C170.899 42.9857 168.95 43.559 166.628 43.559C165.366 43.559 164.019 43.3583 162.586 42.957C161.152 42.527 159.948 41.9823 158.974 41.323C158.974 39.4023 159.146 37.6967 159.49 36.206C160.149 36.0913 161.038 36.034 162.156 36.034L162.672 40.248Z" fill="black"/>
<path d="M128.619 70.305C130.282 70.5057 131.744 71.2797 133.005 72.627C134.295 73.9743 134.94 75.8663 134.94 78.303C134.94 80.711 133.98 82.603 132.059 83.979C130.167 85.3263 127.386 86 123.717 86H111.935L111.806 84.495C113.01 84.0077 114.243 83.6637 115.504 83.463C115.332 72.3977 115.189 64.0987 115.074 58.566C114.099 58.394 112.838 58.05 111.29 57.534C111.376 56.4733 111.448 55.9287 111.505 55.9H122.298C126.139 55.9 128.748 56.2297 130.124 56.889C130.783 57.2043 131.443 57.62 132.102 58.136C133.421 59.168 134.08 60.8737 134.08 63.253C134.08 64.457 133.865 65.5463 133.435 66.521C133.034 67.467 132.503 68.198 131.844 68.714C130.64 69.66 129.565 70.1903 128.619 70.305ZM123.932 72.154H119.159C119.102 74.6193 119.044 78.26 118.987 83.076H123.545C128.304 83.076 130.683 81.2987 130.683 77.744C130.683 75.68 130.124 74.2323 129.006 73.401C127.917 72.5697 126.225 72.154 123.932 72.154ZM121.868 58.91L119.288 58.953C119.231 61.5903 119.202 65.016 119.202 69.23H123.416C125.939 69.23 127.616 68.757 128.447 67.811C129.307 66.8363 129.737 65.3027 129.737 63.21C129.737 60.3433 127.114 58.91 121.868 58.91ZM144.438 54.051C145.327 54.051 145.957 54.0797 146.33 54.137C146.33 55.1403 146.144 56.287 145.771 57.577C145.513 74.4903 145.384 82.99 145.384 83.076L148.996 83.42C148.996 84.2227 148.752 85.0827 148.265 86H138.375L138.246 84.495C139.565 84.0363 140.855 83.6923 142.116 83.463L141.686 57.448C140.109 57.362 138.848 57.19 137.902 56.932L138.074 54.696C139.536 54.266 141.657 54.051 144.438 54.051ZM161.248 83.936C163.656 83.936 165.275 83.1907 166.107 81.7C166.967 80.1807 167.397 78.0307 167.397 75.25C167.397 70.8353 166.422 68.069 164.473 66.951C163.67 66.4923 162.538 66.263 161.076 66.263C159.642 66.263 158.281 66.564 156.991 67.166C155.844 69.3733 155.271 71.939 155.271 74.863C155.271 77.6723 155.643 79.8367 156.389 81.356C157.249 83.076 158.868 83.936 161.248 83.936ZM151.315 75.25C151.315 71.6093 152.146 68.7713 153.809 66.736C155.471 64.672 158.037 63.64 161.506 63.64C164.974 63.64 167.483 64.586 169.031 66.478C170.579 68.3413 171.353 71.1077 171.353 74.777C171.353 78.4463 170.521 81.3273 168.859 83.42C167.225 85.5127 164.731 86.559 161.377 86.559C158.023 86.559 155.5 85.5843 153.809 83.635C152.146 81.6857 151.315 78.8907 151.315 75.25ZM185.804 83.377L189.631 83.291C193.587 83.291 195.565 84.925 195.565 88.193C195.565 89.7123 194.906 91.117 193.587 92.407C192.297 93.7257 190.749 94.7147 188.943 95.374C187.137 96.0333 185.446 96.363 183.869 96.363C182.321 96.363 180.874 96.1337 179.526 95.675C178.179 95.245 177.032 94.5283 176.086 93.525C175.14 92.5217 174.667 91.3607 174.667 90.042C174.667 89.7267 175.169 88.8953 176.172 87.548C177.204 86.2293 177.878 85.4553 178.193 85.226C177.935 85.054 177.434 84.5667 176.688 83.764C175.943 82.9327 175.527 82.3593 175.441 82.044C176.158 80.7253 177.29 79.4353 178.838 78.174C176.545 76.798 175.398 74.5333 175.398 71.38C175.398 68.8573 176.201 66.9367 177.806 65.618C179.412 64.2993 181.418 63.64 183.826 63.64C186.234 63.64 188.098 64.027 189.416 64.801C191.71 64.3423 193.96 64.113 196.167 64.113C196.712 64.113 196.984 64.4427 196.984 65.102C196.984 66.2487 196.769 67.037 196.339 67.467L191.394 66.65C192.426 67.9687 192.942 69.5453 192.942 71.38C192.942 74.2467 192.097 76.3107 190.405 77.572C188.714 78.8047 186.636 79.421 184.17 79.421C183.396 79.421 182.479 79.3207 181.418 79.12C180.988 80.0087 180.444 80.969 179.784 82.001C180.3 82.9183 182.307 83.377 185.804 83.377ZM191.265 91.289C191.552 90.4863 191.695 89.655 191.695 88.795C191.695 87.9637 191.366 87.29 190.706 86.774C190.047 86.258 189.201 86 188.169 86C184.07 86 181.562 85.957 180.644 85.871C179.87 87.1037 179.326 88.1357 179.01 88.967C178.724 89.827 178.58 90.3143 178.58 90.429C178.58 91.547 179.111 92.3783 180.171 92.923C181.232 93.4677 182.45 93.74 183.826 93.74C185.231 93.74 186.636 93.5107 188.04 93.052C189.474 92.5933 190.549 92.0057 191.265 91.289ZM189.072 71.552C189.072 67.9973 187.438 66.22 184.17 66.22C180.902 66.22 179.268 67.94 179.268 71.38C179.268 73.1287 179.698 74.476 180.558 75.422C181.418 76.368 182.665 76.841 184.299 76.841C187.481 76.841 189.072 75.078 189.072 71.552Z" fill="black"/>
</svg>
